<svg version="1.1" xmlns="http://www.w3.org/2000/svg" xmlns:xlink="http://www.w3.org/1999/xlink" width="120" height="52.288" viewBox="0,0,120,52.288"><defs><linearGradient x1="581.0479" y1="356.9307" x2="701.0479" y2="356.9307" gradientUnits="userSpaceOnUse" id="color-1"><stop offset="0" stop-color="#fbb040"/><stop offset="1" stop-color="#f15a29"/></linearGradient><linearGradient x1="585.5508" y1="356.9297" x2="696.5439" y2="356.9297" gradientUnits="userSpaceOnUse" id="color-2"><stop offset="0" stop-color="#ed7340"/><stop offset="0.5181" stop-color="#f4aa46"/><stop offset="1" stop-color="#f29746"/></linearGradient></defs><g transform="translate(-581.048,-330.787)"><g data-paper-data="{&quot;isPaintingLayer&quot;:true}" fill-rule="nonzero" stroke="none" stroke-width="1" stroke-linecap="butt" stroke-linejoin="miter" stroke-miterlimit="10" stroke-dasharray="" stroke-dashoffset="0" style="mix-blend-mode: normal"><path d="M701.048,356.931c0,14.415 -11.73,26.144 -26.146,26.144h-67.711c-14.415,0 -26.143,-11.728 -26.143,-26.144c0,-14.416 11.727,-26.144 26.143,-26.144h67.711c14.416,0 26.145,11.727 26.146,26.144z" fill="url(#color-1)"/><path d="M696.544,356.929c0,11.953 -9.689,21.641 -21.642,21.641h-67.711c-11.952,0 -21.64,-9.688 -21.64,-21.641v0c0,-11.951 9.688,-21.64 21.64,-21.64h67.711c11.952,0 21.642,9.689 21.642,21.64z" fill="url(#color-2)"/><text transform="translate(599.0126,364.16714) scale(0.56785,0.56785)" font-size="40" xml:space="preserve" fill="#ffffff" fill-rule="nonzero" stroke="none" stroke-width="1" stroke-linecap="butt" stroke-linejoin="miter" stroke-miterlimit="10" stroke-dasharray="" stroke-dashoffset="0" font-family="Sans Serif" font-weight="normal" text-anchor="start" style="mix-blend-mode: normal"><tspan x="0" dy="0">MATERI</tspan></text></g></g></svg>